<svg xmlns="http://www.w3.org/2000/svg" xmlns:xlink="http://www.w3.org/1999/xlink" width="500" zoomAndPan="magnify" viewBox="0 0 375 374.999991" height="500" preserveAspectRatio="xMidYMid meet" version="1.0"><defs><g/><clipPath id="6aef3761f1"><path d="M 67.121094 30.054688 L 307.871094 30.054688 L 307.871094 241.554688 L 67.121094 241.554688 Z M 67.121094 30.054688 " clip-rule="nonzero"/></clipPath><clipPath id="994cbc09e7"><rect x="0" width="207" y="0" height="50"/></clipPath><clipPath id="75234d0c39"><rect x="0" width="349" y="0" height="27"/></clipPath></defs><g clip-path="url(#6aef3761f1)"><path fill="#eeba2b" d="M 208.566406 102.75 C 202.09375 101.972656 195.894531 105.585938 193.386719 111.597656 C 190.875 117.613281 192.671875 124.5625 197.777344 128.609375 C 195.695312 123.757812 195.664062 118.269531 197.699219 113.398438 C 199.730469 108.523438 203.65625 104.683594 208.566406 102.75 Z M 264.726562 30.074219 C 274.652344 60.921875 260.5625 86.128906 222.453125 105.679688 C 248.9375 85.5625 263.03125 60.359375 264.726562 30.074219 Z M 110.257812 30.074219 C 100.332031 60.921875 114.421875 86.128906 152.53125 105.679688 C 126.046875 85.5625 111.957031 60.359375 110.257812 30.074219 Z M 92.289062 45.898438 C 91.074219 75.351562 110.140625 101.15625 149.488281 123.304688 C 171.5625 137.800781 185.078125 155.320312 171.429688 182.546875 C 165.394531 194.585938 154.359375 203.359375 141.269531 206.527344 C 154.878906 205.285156 167.335938 198.386719 175.605469 187.507812 C 199.554688 156.015625 179.757812 131.441406 151.199219 114.570312 C 116.863281 93.078125 97.230469 70.191406 92.289062 45.898438 Z M 149.378906 220.652344 C 163.253906 215.15625 174.667969 204.179688 180.488281 189.757812 C 172.007812 202.003906 159.160156 210.128906 144.992188 212.8125 C 146.214844 215.585938 147.6875 218.203125 149.378906 220.652344 Z M 189.53125 191.125 C 190.167969 207.789062 194.6875 223.988281 202.640625 238.46875 C 198.488281 240 194.082031 240.96875 189.53125 241.300781 Z M 192.445312 189.585938 C 195.996094 205.761719 206.675781 219.128906 221.035156 226.308594 C 217.675781 229.875 213.789062 232.90625 209.523438 235.300781 C 199.039062 222.507812 192.925781 206.46875 192.445312 189.585938 Z M 225.609375 220.652344 C 211.734375 215.15625 200.320312 204.179688 194.5 189.757812 C 202.980469 202.003906 215.824219 210.132812 229.992188 212.8125 C 228.769531 215.585938 227.296875 218.207031 225.609375 220.652344 Z M 185.453125 191.128906 C 184.820312 207.789062 180.296875 223.988281 172.347656 238.46875 C 176.5 240 180.902344 240.96875 185.453125 241.300781 Z M 182.542969 189.585938 C 178.992188 205.761719 168.308594 219.128906 153.953125 226.3125 C 157.3125 229.878906 161.195312 232.90625 165.464844 235.300781 C 175.953125 222.507812 182.0625 206.46875 182.542969 189.585938 Z M 282.695312 45.902344 C 283.914062 75.355469 264.847656 101.160156 225.5 123.308594 C 203.425781 137.800781 189.90625 155.324219 203.554688 182.546875 C 209.59375 194.589844 220.625 203.359375 233.722656 206.53125 C 220.109375 205.289062 207.652344 198.386719 199.378906 187.507812 C 175.433594 156.019531 195.226562 131.441406 223.789062 114.570312 C 258.125 93.082031 277.757812 70.195312 282.695312 45.902344 Z M 75.507812 55.492188 C 72.363281 87.75 91.488281 109.382812 132.878906 120.394531 C 102.722656 106.363281 83.601562 84.730469 75.507812 55.492188 Z M 111.621094 178.507812 C 131.800781 185.992188 154.46875 178.394531 166.0625 160.265625 C 148.496094 171.457031 130.347656 177.539062 111.621094 178.507812 Z M 168.070312 169.71875 C 169.027344 181.027344 162.554688 191.652344 152.070312 195.996094 C 141.589844 200.339844 129.496094 197.402344 122.175781 188.726562 C 130.625 193.492188 140.792969 194.109375 149.753906 190.398438 C 158.710938 186.6875 165.464844 179.0625 168.070312 169.71875 Z M 102.480469 165.351562 C 112.984375 172.828125 127.277344 171.972656 136.816406 163.292969 C 124.910156 167.027344 113.464844 167.710938 102.480469 165.351562 Z M 172.777344 156.1875 C 155.195312 135.90625 114.203125 158.933594 86.640625 145.570312 C 106.183594 178.457031 143.210938 145.019531 172.777344 156.1875 Z M 67.121094 112.859375 C 73.800781 135.964844 96.007812 145.269531 133.730469 140.773438 C 99.527344 137.828125 77.320312 128.523438 67.121094 112.859375 Z M 68.660156 92.308594 C 84.742188 120.972656 150.671875 123.90625 167.128906 145.394531 C 136.089844 133.628906 73.375 128.671875 68.660156 92.308594 Z M 189.644531 103.609375 C 199.851562 96.90625 208.386719 94.851562 215.242188 97.445312 C 209.925781 90.820312 203.734375 89.59375 196.664062 93.765625 C 192.445312 91.582031 188.878906 91.582031 185.960938 93.765625 C 182.125 95.253906 177.78125 94.457031 174.726562 91.703125 C 171.667969 88.953125 170.417969 84.71875 171.492188 80.746094 C 168.15625 87.476562 170.1875 95.632812 176.285156 100.011719 C 173.710938 101.574219 170.40625 101.207031 168.238281 99.117188 C 166.070312 97.03125 165.578125 93.742188 167.039062 91.109375 C 163.683594 95.203125 162.871094 100.820312 164.941406 105.691406 C 167.007812 110.5625 171.613281 113.882812 176.882812 114.3125 C 174.875 119.890625 175.742188 126.105469 179.199219 130.921875 C 178.632812 122.417969 180.890625 113.960938 185.617188 106.863281 C 181.15625 109.007812 175.84375 108.300781 172.089844 105.066406 C 176.40625 104.765625 181.203125 102.707031 186.476562 98.898438 C 193.273438 94.816406 194.328125 96.386719 189.644531 103.609375 Z M 263.367188 178.507812 C 243.1875 185.992188 220.519531 178.394531 208.921875 160.265625 C 226.488281 171.457031 244.636719 177.539062 263.367188 178.507812 Z M 206.914062 169.71875 C 205.960938 181.027344 212.429688 191.652344 222.914062 195.996094 C 233.398438 200.339844 245.488281 197.402344 252.808594 188.726562 C 244.363281 193.492188 234.195312 194.109375 225.230469 190.398438 C 216.273438 186.6875 209.519531 179.0625 206.914062 169.71875 Z M 272.503906 165.351562 C 262 172.828125 247.707031 171.972656 238.171875 163.292969 C 250.078125 167.027344 261.523438 167.710938 272.503906 165.351562 Z M 202.207031 156.1875 C 219.792969 135.90625 260.785156 158.933594 288.347656 145.570312 C 268.800781 178.457031 231.777344 145.019531 202.207031 156.1875 Z M 307.871094 112.859375 C 301.183594 135.964844 278.980469 145.269531 241.25 140.773438 C 275.460938 137.828125 297.664062 128.523438 307.871094 112.859375 Z M 306.328125 92.308594 C 290.246094 120.972656 224.316406 123.90625 207.859375 145.394531 C 238.894531 133.628906 301.609375 128.671875 306.328125 92.308594 Z M 299.476562 55.492188 C 302.621094 87.75 283.5 109.382812 242.109375 120.394531 C 272.261719 106.363281 291.382812 84.730469 299.476562 55.492188 Z M 299.476562 55.492188 " fill-opacity="1" fill-rule="evenodd"/></g><g transform="matrix(1, 0, 0, 1, 86, 258)"><g clip-path="url(#994cbc09e7)"><g fill="#eeba2b" fill-opacity="1"><g transform="translate(3.067816, 35.313709)"><g><path d="M 35.0625 6.640625 C 32.414062 7.972656 29.738281 8.191406 27.03125 7.296875 C 24.15625 6.378906 21.675781 4.421875 19.59375 1.421875 C 18.476562 -0.179688 17.523438 -2.035156 16.734375 -4.140625 L 15.5625 -7.21875 L 7 -7.21875 L 5.078125 -2.65625 C 4.953125 -2.332031 4.890625 -2.070312 4.890625 -1.875 C 4.890625 -1.6875 4.929688 -1.476562 5.015625 -1.25 C 5.109375 -1.019531 5.289062 -0.8125 5.5625 -0.625 C 5.84375 -0.445312 6.148438 -0.359375 6.484375 -0.359375 L 6.78125 -0.359375 L 6.78125 0 L -0.984375 0 L -0.984375 -0.359375 L -0.65625 -0.359375 C -0.101562 -0.359375 0.441406 -0.519531 0.984375 -0.84375 C 1.535156 -1.175781 1.992188 -1.671875 2.359375 -2.328125 L 10.453125 -20.796875 C 9.503906 -22.929688 8.5 -24.394531 7.4375 -25.1875 C 6.539062 -25.863281 5.6875 -26.203125 4.875 -26.203125 C 4.0625 -26.203125 3.304688 -26.082031 2.609375 -25.84375 L 2.53125 -26.203125 C 4.28125 -27.097656 5.953125 -27.546875 7.546875 -27.546875 C 9.523438 -27.546875 11.300781 -26.769531 12.875 -25.21875 C 14.425781 -23.695312 15.796875 -21.5 16.984375 -18.625 L 22.25 -5.625 C 24.226562 -0.707031 26.257812 2.664062 28.34375 4.5 C 29.1875 5.25 30.054688 5.769531 30.953125 6.0625 C 31.847656 6.351562 32.601562 6.5 33.21875 6.5 C 33.84375 6.5 34.441406 6.425781 35.015625 6.28125 Z M 7.625 -8.78125 L 15.015625 -8.78125 L 12.484375 -15.5 C 12.359375 -15.832031 12.1875 -16.296875 11.96875 -16.890625 C 11.75 -17.484375 11.601562 -17.898438 11.53125 -18.140625 Z M 7.625 -8.78125 "/></g></g></g><g fill="#eeba2b" fill-opacity="1"><g transform="translate(33.726741, 35.313709)"><g><path d="M 14.65625 -0.359375 L 15.125 -0.359375 L 15.125 0 L 4.09375 0 L 4.09375 -0.359375 L 4.5625 -0.359375 C 5.195312 -0.359375 5.738281 -0.582031 6.1875 -1.03125 C 6.632812 -1.476562 6.867188 -2.019531 6.890625 -2.65625 L 6.890625 -23.921875 L 3.4375 -23.78125 C 1.164062 -23.675781 0.03125 -22.828125 0.03125 -21.234375 C 0.03125 -20.578125 0.253906 -20.023438 0.703125 -19.578125 C 1.148438 -19.128906 1.773438 -18.90625 2.578125 -18.90625 C 2.648438 -18.90625 2.722656 -18.90625 2.796875 -18.90625 L 2.796875 -18.6875 C 2.304688 -18.519531 1.894531 -18.4375 1.5625 -18.4375 C 0.46875 -18.4375 -0.367188 -18.820312 -0.953125 -19.59375 C -1.359375 -20.132812 -1.5625 -20.742188 -1.5625 -21.421875 C -1.5625 -22.484375 -1.144531 -23.359375 -0.3125 -24.046875 C 0.519531 -24.734375 1.804688 -25.140625 3.546875 -25.265625 C 3.867188 -25.285156 4.882812 -25.332031 6.59375 -25.40625 C 10.519531 -25.550781 13.363281 -25.796875 15.125 -26.140625 L 15.203125 -25.765625 C 14.160156 -25.597656 13.425781 -25.25 13 -24.71875 C 12.582031 -24.1875 12.359375 -23.398438 12.328125 -22.359375 L 12.328125 -2.65625 C 12.359375 -2.019531 12.597656 -1.476562 13.046875 -1.03125 C 13.492188 -0.582031 14.03125 -0.359375 14.65625 -0.359375 Z M 14.65625 -0.359375 "/></g></g></g><g fill="#eeba2b" fill-opacity="1"><g transform="translate(55.351708, 35.313709)"><g><path d="M 39.375 6.171875 C 37.488281 7.117188 35.484375 7.59375 33.359375 7.59375 C 31.472656 7.59375 29.753906 7.300781 28.203125 6.71875 C 24.859375 5.476562 22.015625 3.066406 19.671875 -0.515625 C 19.066406 -1.378906 17.941406 -3.046875 16.296875 -5.515625 C 14.648438 -7.984375 13.585938 -9.554688 13.109375 -10.234375 C 12.253906 -11.566406 11.578125 -12.289062 11.078125 -12.40625 L 11.078125 -12.78125 C 11.097656 -12.78125 11.125 -12.78125 11.15625 -12.78125 C 11.195312 -12.78125 11.238281 -12.78125 11.28125 -12.78125 C 11.332031 -12.78125 11.378906 -12.78125 11.421875 -12.78125 C 11.472656 -12.78125 11.535156 -12.78125 11.609375 -12.78125 C 11.679688 -12.78125 11.742188 -12.78125 11.796875 -12.78125 C 13.023438 -12.78125 14.160156 -13.054688 15.203125 -13.609375 C 16.773438 -14.484375 17.5625 -16.09375 17.5625 -18.4375 C 17.5625 -20.15625 17.078125 -21.476562 16.109375 -22.40625 C 15.140625 -23.34375 13.976562 -23.8125 12.625 -23.8125 L 9.875 -23.8125 L 9.875 -2.65625 C 9.875 -2.019531 10.101562 -1.476562 10.5625 -1.03125 C 11.019531 -0.582031 11.566406 -0.359375 12.203125 -0.359375 L 12.671875 -0.359375 L 12.671875 0 L 1.640625 0 L 1.640625 -0.359375 L 2.109375 -0.359375 C 2.710938 -0.359375 3.242188 -0.578125 3.703125 -1.015625 C 4.160156 -1.453125 4.398438 -1.984375 4.421875 -2.609375 L 4.421875 -22.765625 C 4.398438 -23.390625 4.164062 -23.925781 3.71875 -24.375 C 3.269531 -24.820312 2.734375 -25.046875 2.109375 -25.046875 L 1.640625 -25.046875 L 1.640625 -25.40625 L 14.078125 -25.40625 C 17.203125 -25.40625 19.625 -24.691406 21.34375 -23.265625 C 22.695312 -22.148438 23.375 -20.578125 23.375 -18.546875 C 23.375 -16.515625 22.710938 -14.863281 21.390625 -13.59375 C 20.078125 -12.320312 18.570312 -11.6875 16.875 -11.6875 C 16.726562 -11.6875 16.570312 -11.695312 16.40625 -11.71875 C 17.394531 -11.1875 18.222656 -10.59375 18.890625 -9.9375 C 19.554688 -9.289062 20.132812 -8.675781 20.625 -8.09375 C 21.125 -7.507812 21.550781 -6.992188 21.90625 -6.546875 C 22.257812 -6.097656 22.722656 -5.503906 23.296875 -4.765625 C 23.878906 -4.035156 24.484375 -3.269531 25.109375 -2.46875 C 25.742188 -1.664062 26.441406 -0.847656 27.203125 -0.015625 C 27.960938 0.816406 28.804688 1.609375 29.734375 2.359375 C 30.671875 3.109375 31.625 3.722656 32.59375 4.203125 C 34.65625 5.242188 36.914062 5.78125 39.375 5.8125 Z M 39.375 6.171875 "/></g></g></g><g fill="#eeba2b" fill-opacity="1"><g transform="translate(86.953946, 35.313709)"><g><path d="M 3.40625 -10.3125 C 2.4375 -8.757812 1.953125 -7.171875 1.953125 -5.546875 C 1.953125 -3.785156 2.597656 -2.175781 3.890625 -0.71875 C 4.585938 0.101562 5.472656 0.742188 6.546875 1.203125 C 7.628906 1.660156 8.8125 1.890625 10.09375 1.890625 C 11.375 1.890625 12.519531 1.644531 13.53125 1.15625 C 15.570312 0.164062 16.59375 -1.453125 16.59375 -3.703125 C 16.59375 -4.546875 16.304688 -5.4375 15.734375 -6.375 C 15.160156 -7.320312 14.304688 -8.171875 13.171875 -8.921875 L 7 -13.0625 C 4.601562 -14.5625 3.40625 -16.5 3.40625 -18.875 C 3.40625 -19.113281 3.421875 -19.351562 3.453125 -19.59375 C 3.597656 -21.457031 4.335938 -22.976562 5.671875 -24.15625 C 7.015625 -25.332031 8.816406 -25.921875 11.078125 -25.921875 C 12.453125 -25.921875 14.117188 -25.796875 16.078125 -25.546875 L 18.328125 -25.546875 L 17.859375 -20.21875 L 17.53125 -20.21875 C 17.507812 -21.476562 17.023438 -22.488281 16.078125 -23.25 C 15.128906 -24.007812 13.882812 -24.390625 12.34375 -24.390625 C 10.457031 -24.390625 9.085938 -23.820312 8.234375 -22.6875 C 7.828125 -22.101562 7.625 -21.472656 7.625 -20.796875 C 7.625 -20.117188 7.828125 -19.539062 8.234375 -19.0625 C 8.648438 -18.59375 9.304688 -18.082031 10.203125 -17.53125 L 16.984375 -13.109375 C 18.367188 -12.210938 19.445312 -11.160156 20.21875 -9.953125 C 21.132812 -8.515625 21.59375 -7.046875 21.59375 -5.546875 C 21.59375 -4.578125 21.394531 -3.554688 21 -2.484375 C 20.601562 -1.410156 19.945312 -0.414062 19.03125 0.5 C 18.125 1.425781 16.957031 2.175781 15.53125 2.75 C 14.101562 3.332031 12.523438 3.625 10.796875 3.625 C 9.066406 3.625 7.5 3.320312 6.09375 2.71875 C 3.507812 1.632812 1.863281 -0.257812 1.15625 -2.96875 C 1.007812 -3.550781 0.9375 -4.160156 0.9375 -4.796875 C 0.9375 -6.828125 1.648438 -8.75 3.078125 -10.5625 Z M 3.40625 -10.3125 "/></g></g></g><g fill="#eeba2b" fill-opacity="1"><g transform="translate(114.637833, 35.313709)"><g><path d="M -0.90625 -16.953125 C -2.09375 -18.085938 -2.6875 -19.304688 -2.6875 -20.609375 C -2.6875 -21.628906 -2.363281 -22.515625 -1.71875 -23.265625 C -0.476562 -24.710938 1.253906 -25.4375 3.484375 -25.4375 L 20.578125 -25.4375 C 21.640625 -25.46875 22.566406 -25.5625 23.359375 -25.71875 C 24.160156 -25.875 24.671875 -26 24.890625 -26.09375 L 24.890625 -19.78125 L 24.53125 -19.78125 L 24.53125 -20.21875 C 24.53125 -21.300781 24.203125 -22.179688 23.546875 -22.859375 C 22.898438 -23.546875 22.019531 -23.898438 20.90625 -23.921875 L 16 -23.921875 L 16 -2.609375 C 16.050781 -1.742188 16.453125 -1.09375 17.203125 -0.65625 C 17.535156 -0.457031 17.910156 -0.359375 18.328125 -0.359375 L 18.796875 -0.359375 L 18.796875 0 L 7.765625 0 L 7.765625 -0.359375 L 8.234375 -0.359375 C 8.859375 -0.359375 9.394531 -0.578125 9.84375 -1.015625 C 10.289062 -1.453125 10.53125 -1.972656 10.5625 -2.578125 L 10.5625 -23.921875 L 3.484375 -23.921875 C 2.484375 -23.921875 1.609375 -23.738281 0.859375 -23.375 C -0.660156 -22.644531 -1.421875 -21.507812 -1.421875 -19.96875 C -1.421875 -19.039062 -1.128906 -18.09375 -0.546875 -17.125 Z M -0.90625 -16.953125 "/></g></g></g><g fill="#eeba2b" fill-opacity="1"><g transform="translate(145.042791, 35.313709)"><g><path d="M 35.0625 6.640625 C 32.414062 7.972656 29.738281 8.191406 27.03125 7.296875 C 24.15625 6.378906 21.675781 4.421875 19.59375 1.421875 C 18.476562 -0.179688 17.523438 -2.035156 16.734375 -4.140625 L 15.5625 -7.21875 L 7 -7.21875 L 5.078125 -2.65625 C 4.953125 -2.332031 4.890625 -2.070312 4.890625 -1.875 C 4.890625 -1.6875 4.929688 -1.476562 5.015625 -1.25 C 5.109375 -1.019531 5.289062 -0.8125 5.5625 -0.625 C 5.84375 -0.445312 6.148438 -0.359375 6.484375 -0.359375 L 6.78125 -0.359375 L 6.78125 0 L -0.984375 0 L -0.984375 -0.359375 L -0.65625 -0.359375 C -0.101562 -0.359375 0.441406 -0.519531 0.984375 -0.84375 C 1.535156 -1.175781 1.992188 -1.671875 2.359375 -2.328125 L 10.453125 -20.796875 C 9.503906 -22.929688 8.5 -24.394531 7.4375 -25.1875 C 6.539062 -25.863281 5.6875 -26.203125 4.875 -26.203125 C 4.0625 -26.203125 3.304688 -26.082031 2.609375 -25.84375 L 2.53125 -26.203125 C 4.28125 -27.097656 5.953125 -27.546875 7.546875 -27.546875 C 9.523438 -27.546875 11.300781 -26.769531 12.875 -25.21875 C 14.425781 -23.695312 15.796875 -21.5 16.984375 -18.625 L 22.25 -5.625 C 24.226562 -0.707031 26.257812 2.664062 28.34375 4.5 C 29.1875 5.25 30.054688 5.769531 30.953125 6.0625 C 31.847656 6.351562 32.601562 6.5 33.21875 6.5 C 33.84375 6.5 34.441406 6.425781 35.015625 6.28125 Z M 7.625 -8.78125 L 15.015625 -8.78125 L 12.484375 -15.5 C 12.359375 -15.832031 12.1875 -16.296875 11.96875 -16.890625 C 11.75 -17.484375 11.601562 -17.898438 11.53125 -18.140625 Z M 7.625 -8.78125 "/></g></g></g><g fill="#eeba2b" fill-opacity="1"><g transform="translate(175.701716, 35.313709)"><g><path d="M -2.4375 -27.515625 C -2.039062 -27.535156 -1.425781 -27.546875 -0.59375 -27.546875 C 0.238281 -27.546875 1.335938 -27.367188 2.703125 -27.015625 C 4.066406 -26.671875 5.328125 -26.125 6.484375 -25.375 C 7.648438 -24.625 8.71875 -23.71875 9.6875 -22.65625 C 11.476562 -20.664062 12.882812 -18.28125 13.90625 -15.5 C 15.351562 -19.632812 17.238281 -22.804688 19.5625 -25.015625 C 21.332031 -26.679688 23.28125 -27.515625 25.40625 -27.515625 C 25.5 -27.515625 25.597656 -27.515625 25.703125 -27.515625 L 25.703125 -27.15625 C 24.492188 -27.125 23.238281 -26.484375 21.9375 -25.234375 C 20.644531 -23.992188 19.515625 -22.488281 18.546875 -20.71875 C 17.578125 -18.957031 16.757812 -17.117188 16.09375 -15.203125 C 15.425781 -13.296875 15.035156 -11.640625 14.921875 -10.234375 L 14.921875 -2.65625 C 14.921875 -2.050781 15.144531 -1.515625 15.59375 -1.046875 C 16.039062 -0.585938 16.585938 -0.359375 17.234375 -0.359375 L 17.71875 -0.359375 L 17.71875 0 L 6.671875 0 L 6.671875 -0.359375 L 7.15625 -0.359375 C 7.78125 -0.359375 8.316406 -0.582031 8.765625 -1.03125 C 9.210938 -1.476562 9.445312 -2.019531 9.46875 -2.65625 L 9.46875 -10.265625 C 9.175781 -12.878906 8.304688 -15.648438 6.859375 -18.578125 C 5.191406 -21.972656 3.316406 -24.382812 1.234375 -25.8125 C 0.0234375 -26.65625 -1.195312 -27.101562 -2.4375 -27.15625 Z M -2.4375 -27.515625 "/></g></g></g></g></g><g transform="matrix(1, 0, 0, 1, 13, 320)"><g clip-path="url(#75234d0c39)"><g fill="#eeba2b" fill-opacity="1"><g transform="translate(1.131792, 18.344464)"><g><path d="M 1.40625 -0.1875 C 1.738281 -0.1875 2.023438 -0.304688 2.265625 -0.546875 C 2.503906 -0.785156 2.628906 -1.070312 2.640625 -1.40625 L 2.640625 -12.234375 C 2.609375 -12.546875 2.472656 -12.804688 2.234375 -13.015625 C 2.003906 -13.234375 1.726562 -13.34375 1.40625 -13.34375 L 1.171875 -13.34375 L 1.15625 -13.53125 L 6.828125 -13.53125 C 7.222656 -13.53125 7.65625 -13.566406 8.125 -13.640625 C 8.59375 -13.722656 8.925781 -13.800781 9.125 -13.875 L 9.125 -11.4375 L 8.921875 -11.4375 L 8.921875 -11.796875 C 8.921875 -12.097656 8.816406 -12.359375 8.609375 -12.578125 C 8.398438 -12.796875 8.144531 -12.914062 7.84375 -12.9375 L 3.90625 -12.9375 L 3.90625 -6.953125 L 7.171875 -6.953125 C 7.429688 -6.972656 7.648438 -7.070312 7.828125 -7.25 C 8.003906 -7.425781 8.09375 -7.648438 8.09375 -7.921875 L 8.09375 -8.1875 L 8.296875 -8.1875 L 8.296875 -5.140625 L 8.09375 -5.140625 L 8.09375 -5.4375 C 8.09375 -5.6875 8.003906 -5.898438 7.828125 -6.078125 C 7.660156 -6.265625 7.445312 -6.363281 7.1875 -6.375 L 3.90625 -6.375 L 3.90625 -0.59375 L 6.671875 -0.59375 C 7.617188 -0.59375 8.34375 -0.804688 8.84375 -1.234375 C 9.351562 -1.660156 9.773438 -2.289062 10.109375 -3.125 L 10.296875 -3.125 L 9.1875 0 L 1.15625 0 L 1.15625 -0.1875 Z M 1.40625 -0.1875 "/></g></g></g><g fill="#eeba2b" fill-opacity="1"><g transform="translate(12.283862, 18.344464)"><g><path d="M 12.328125 0 L 7.75 0 L 7.75 -0.1875 L 7.984375 -0.1875 C 8.234375 -0.1875 8.421875 -0.273438 8.546875 -0.453125 C 8.671875 -0.628906 8.734375 -0.769531 8.734375 -0.875 C 8.734375 -0.988281 8.703125 -1.101562 8.640625 -1.21875 L 5.96875 -5.046875 L 3.140625 -1.234375 C 3.054688 -1.117188 3.015625 -1.003906 3.015625 -0.890625 C 3.015625 -0.773438 3.070312 -0.628906 3.1875 -0.453125 C 3.3125 -0.273438 3.507812 -0.1875 3.78125 -0.1875 L 4.015625 -0.1875 L 4.015625 0 L -0.203125 0 L -0.203125 -0.1875 L 0.046875 -0.1875 C 0.742188 -0.1875 1.359375 -0.503906 1.890625 -1.140625 L 5.484375 -5.734375 L 2.21875 -10.4375 C 2.019531 -10.707031 1.75 -10.9375 1.40625 -11.125 C 1.070312 -11.3125 0.722656 -11.40625 0.359375 -11.40625 L 0.109375 -11.40625 L 0.109375 -11.59375 L 4.65625 -11.59375 L 4.65625 -11.40625 L 4.421875 -11.40625 C 4.160156 -11.40625 3.96875 -11.316406 3.84375 -11.140625 C 3.726562 -10.960938 3.671875 -10.816406 3.671875 -10.703125 C 3.671875 -10.597656 3.707031 -10.488281 3.78125 -10.375 L 6.234375 -6.859375 L 8.578125 -10.375 C 8.648438 -10.476562 8.6875 -10.585938 8.6875 -10.703125 C 8.6875 -10.816406 8.625 -10.960938 8.5 -11.140625 C 8.382812 -11.316406 8.195312 -11.40625 7.9375 -11.40625 L 7.703125 -11.40625 L 7.703125 -11.59375 L 12 -11.59375 L 12 -11.40625 L 11.734375 -11.40625 C 11.367188 -11.40625 11.019531 -11.3125 10.6875 -11.125 C 10.363281 -10.9375 10.09375 -10.703125 9.875 -10.421875 L 6.765625 -6.09375 L 10.21875 -1.140625 C 10.5 -0.765625 10.816406 -0.507812 11.171875 -0.375 C 11.523438 -0.25 11.828125 -0.1875 12.078125 -0.1875 L 12.328125 -0.1875 Z M 12.328125 0 "/></g></g></g><g fill="#eeba2b" fill-opacity="1"><g transform="translate(24.382985, 18.344464)"><g><path d="M 18.421875 2.953125 C 20.378906 2.953125 21.910156 2.445312 23.015625 1.4375 L 23.078125 1.5 C 22.984375 1.738281 22.789062 2.003906 22.5 2.296875 C 22.21875 2.597656 21.816406 2.898438 21.296875 3.203125 C 20.253906 3.796875 19.160156 4.09375 18.015625 4.09375 C 16.835938 4.09375 15.675781 3.847656 14.53125 3.359375 C 14.050781 3.171875 13.34375 2.832031 12.40625 2.34375 C 10.164062 1.164062 8.507812 0.472656 7.4375 0.265625 C 5.59375 0.265625 4.050781 -0.296875 2.8125 -1.421875 C 1.582031 -2.554688 0.96875 -4.015625 0.96875 -5.796875 C 0.96875 -6.671875 1.132812 -7.488281 1.46875 -8.25 C 1.800781 -9.007812 2.253906 -9.65625 2.828125 -10.1875 C 3.398438 -10.71875 4.078125 -11.128906 4.859375 -11.421875 C 5.648438 -11.722656 6.554688 -11.875 7.578125 -11.875 C 8.609375 -11.875 9.609375 -11.617188 10.578125 -11.109375 C 11.554688 -10.597656 12.328125 -9.878906 12.890625 -8.953125 C 13.460938 -8.023438 13.75 -6.972656 13.75 -5.796875 C 13.75 -4.304688 13.300781 -3.03125 12.40625 -1.96875 C 11.507812 -0.90625 10.34375 -0.21875 8.90625 0.09375 C 10.019531 0.414062 11.9375 1.117188 14.65625 2.203125 C 15.90625 2.703125 17.160156 2.953125 18.421875 2.953125 Z M 3.8125 -9.75 C 2.863281 -8.726562 2.390625 -7.410156 2.390625 -5.796875 C 2.390625 -4.179688 2.863281 -2.863281 3.8125 -1.84375 C 4.757812 -0.820312 5.9375 -0.3125 7.34375 -0.3125 C 8.757812 -0.3125 9.941406 -0.820312 10.890625 -1.84375 C 11.847656 -2.863281 12.328125 -4.179688 12.328125 -5.796875 C 12.328125 -7.410156 11.847656 -8.726562 10.890625 -9.75 C 9.941406 -10.769531 8.757812 -11.28125 7.34375 -11.28125 C 5.9375 -11.28125 4.757812 -10.769531 3.8125 -9.75 Z M 3.8125 -9.75 "/></g></g></g><g fill="#eeba2b" fill-opacity="1"><g transform="translate(39.400586, 18.344464)"><g><path d="M 12.859375 -11.40625 L 12.5625 -11.40625 C 12.21875 -11.40625 11.953125 -11.269531 11.765625 -11 C 11.691406 -10.882812 11.648438 -10.75 11.640625 -10.59375 L 11.640625 -4.078125 C 11.640625 -2.734375 11.207031 -1.671875 10.34375 -0.890625 C 9.488281 -0.117188 8.3125 0.265625 6.8125 0.265625 C 5.320312 0.265625 4.144531 -0.117188 3.28125 -0.890625 C 2.414062 -1.660156 1.984375 -2.71875 1.984375 -4.0625 L 1.984375 -10.578125 C 1.984375 -10.804688 1.894531 -11 1.71875 -11.15625 C 1.539062 -11.320312 1.320312 -11.40625 1.0625 -11.40625 L 0.765625 -11.40625 L 0.765625 -11.59375 L 4.453125 -11.59375 L 4.453125 -11.40625 L 4.15625 -11.40625 C 3.894531 -11.40625 3.675781 -11.320312 3.5 -11.15625 C 3.320312 -11 3.234375 -10.804688 3.234375 -10.578125 L 3.234375 -4.296875 C 3.234375 -3.046875 3.550781 -2.054688 4.1875 -1.328125 C 4.820312 -0.609375 5.722656 -0.25 6.890625 -0.25 C 8.054688 -0.25 8.988281 -0.585938 9.6875 -1.265625 C 10.394531 -1.953125 10.75 -2.890625 10.75 -4.078125 L 10.75 -10.578125 C 10.738281 -10.816406 10.644531 -11.015625 10.46875 -11.171875 C 10.289062 -11.328125 10.070312 -11.40625 9.8125 -11.40625 L 9.53125 -11.40625 L 9.53125 -11.59375 L 12.859375 -11.59375 Z M 12.859375 -11.40625 "/></g></g></g><g fill="#eeba2b" fill-opacity="1"><g transform="translate(52.929959, 18.344464)"><g><path d="M 1.328125 -0.1875 C 1.679688 -0.1875 1.984375 -0.289062 2.234375 -0.5 C 2.492188 -0.707031 2.625 -0.953125 2.625 -1.234375 L 2.625 -10.359375 C 2.625 -10.640625 2.492188 -10.882812 2.234375 -11.09375 C 1.984375 -11.300781 1.675781 -11.40625 1.3125 -11.40625 L 1.0625 -11.40625 L 1.0625 -11.59375 L 5.4375 -11.59375 L 5.4375 -11.40625 L 5.1875 -11.40625 C 4.832031 -11.40625 4.53125 -11.304688 4.28125 -11.109375 C 4.03125 -10.921875 3.890625 -10.6875 3.859375 -10.40625 L 3.859375 -1.21875 C 3.878906 -0.9375 4.015625 -0.691406 4.265625 -0.484375 C 4.523438 -0.285156 4.832031 -0.1875 5.1875 -0.1875 L 5.4375 -0.1875 L 5.453125 0 L 1.0625 0 L 1.0625 -0.1875 Z M 1.328125 -0.1875 "/></g></g></g><g fill="#eeba2b" fill-opacity="1"><g transform="translate(59.424063, 18.344464)"><g><path d="M 1.125 -0.640625 C 1.082031 -0.796875 1.0625 -1.109375 1.0625 -1.578125 C 1.0625 -2.054688 1.144531 -2.539062 1.3125 -3.03125 L 1.546875 -3.03125 C 1.535156 -2.914062 1.53125 -2.800781 1.53125 -2.6875 C 1.53125 -1.988281 1.757812 -1.414062 2.21875 -0.96875 C 2.675781 -0.53125 3.304688 -0.3125 4.109375 -0.3125 C 4.960938 -0.3125 5.628906 -0.503906 6.109375 -0.890625 C 6.585938 -1.285156 6.828125 -1.796875 6.828125 -2.421875 C 6.828125 -3.046875 6.59375 -3.566406 6.125 -3.984375 L 2.265625 -6.953125 C 1.640625 -7.484375 1.328125 -8.191406 1.328125 -9.078125 C 1.328125 -9.585938 1.46875 -10.050781 1.75 -10.46875 C 2.03125 -10.894531 2.414062 -11.234375 2.90625 -11.484375 C 3.40625 -11.742188 3.988281 -11.875 4.65625 -11.875 C 5.320312 -11.875 5.914062 -11.8125 6.4375 -11.6875 L 7.078125 -11.6875 L 7.109375 -9.59375 L 6.90625 -9.59375 C 6.90625 -10.132812 6.71875 -10.550781 6.34375 -10.84375 C 5.96875 -11.132812 5.429688 -11.28125 4.734375 -11.28125 C 4.035156 -11.28125 3.460938 -11.101562 3.015625 -10.75 C 2.566406 -10.394531 2.34375 -9.9375 2.34375 -9.375 C 2.34375 -8.820312 2.59375 -8.335938 3.09375 -7.921875 L 7 -4.90625 C 7.59375 -4.414062 7.890625 -3.734375 7.890625 -2.859375 C 7.890625 -1.984375 7.554688 -1.242188 6.890625 -0.640625 C 6.222656 -0.0351562 5.414062 0.265625 4.46875 0.265625 C 3.832031 0.265625 3.195312 0.1875 2.5625 0.03125 C 1.9375 -0.113281 1.457031 -0.335938 1.125 -0.640625 Z M 1.125 -0.640625 "/></g></g></g><g fill="#eeba2b" fill-opacity="1"><g transform="translate(68.353449, 18.344464)"><g><path d="M 1.328125 -0.1875 C 1.679688 -0.1875 1.984375 -0.289062 2.234375 -0.5 C 2.492188 -0.707031 2.625 -0.953125 2.625 -1.234375 L 2.625 -10.359375 C 2.625 -10.640625 2.492188 -10.882812 2.234375 -11.09375 C 1.984375 -11.300781 1.675781 -11.40625 1.3125 -11.40625 L 1.0625 -11.40625 L 1.0625 -11.59375 L 5.4375 -11.59375 L 5.4375 -11.40625 L 5.1875 -11.40625 C 4.832031 -11.40625 4.53125 -11.304688 4.28125 -11.109375 C 4.03125 -10.921875 3.890625 -10.6875 3.859375 -10.40625 L 3.859375 -1.21875 C 3.878906 -0.9375 4.015625 -0.691406 4.265625 -0.484375 C 4.523438 -0.285156 4.832031 -0.1875 5.1875 -0.1875 L 5.4375 -0.1875 L 5.453125 0 L 1.0625 0 L 1.0625 -0.1875 Z M 1.328125 -0.1875 "/></g></g></g><g fill="#eeba2b" fill-opacity="1"><g transform="translate(74.847554, 18.344464)"><g><path d="M 6.21875 -11.03125 L 6.21875 -1.21875 C 6.238281 -0.820312 6.429688 -0.523438 6.796875 -0.328125 C 6.972656 -0.234375 7.160156 -0.1875 7.359375 -0.1875 L 7.578125 -0.1875 L 7.578125 0 L 3.59375 0 L 3.59375 -0.1875 L 3.828125 -0.1875 C 4.140625 -0.1875 4.40625 -0.289062 4.625 -0.5 C 4.84375 -0.707031 4.957031 -0.953125 4.96875 -1.234375 L 4.96875 -11.03125 L 1.46875 -11.03125 C 1.175781 -11.03125 0.941406 -10.929688 0.765625 -10.734375 C 0.585938 -10.546875 0.5 -10.316406 0.5 -10.046875 L 0.5 -9.734375 L 0.296875 -9.734375 L 0.296875 -11.921875 C 0.546875 -11.816406 0.90625 -11.738281 1.375 -11.6875 C 1.851562 -11.632812 2.207031 -11.609375 2.4375 -11.609375 L 8.734375 -11.609375 C 9.660156 -11.609375 10.382812 -11.710938 10.90625 -11.921875 L 10.90625 -9.734375 L 10.6875 -9.734375 L 10.6875 -10.046875 C 10.6875 -10.316406 10.59375 -10.546875 10.40625 -10.734375 C 10.226562 -10.929688 10 -11.03125 9.71875 -11.03125 Z M 6.21875 -11.03125 "/></g></g></g><g fill="#eeba2b" fill-opacity="1"><g transform="translate(86.018954, 18.344464)"><g><path d="M 1.328125 -0.1875 C 1.640625 -0.1875 1.898438 -0.285156 2.109375 -0.484375 C 2.328125 -0.691406 2.441406 -0.9375 2.453125 -1.21875 L 2.453125 -10.40625 C 2.453125 -10.6875 2.34375 -10.921875 2.125 -11.109375 C 1.90625 -11.304688 1.640625 -11.40625 1.328125 -11.40625 L 1.0625 -11.40625 L 1.0625 -11.59375 L 6.703125 -11.59375 C 7.234375 -11.59375 7.695312 -11.628906 8.09375 -11.703125 C 8.5 -11.785156 8.757812 -11.851562 8.875 -11.90625 L 8.875 -9.703125 L 8.65625 -9.71875 L 8.65625 -10.015625 C 8.65625 -10.285156 8.566406 -10.515625 8.390625 -10.703125 C 8.210938 -10.898438 7.976562 -11 7.6875 -11 L 3.671875 -11 L 3.671875 -6.09375 L 6.984375 -6.09375 C 7.234375 -6.09375 7.425781 -6.164062 7.5625 -6.3125 C 7.695312 -6.46875 7.765625 -6.664062 7.765625 -6.90625 L 7.765625 -7.15625 L 7.984375 -7.15625 L 7.984375 -4.453125 L 7.765625 -4.453125 L 7.765625 -4.703125 C 7.765625 -5.054688 7.628906 -5.300781 7.359375 -5.4375 C 7.253906 -5.46875 7.144531 -5.492188 7.03125 -5.515625 L 3.671875 -5.515625 L 3.671875 -0.59375 L 6.703125 -0.59375 C 7.296875 -0.59375 7.796875 -0.695312 8.203125 -0.90625 C 8.609375 -1.113281 8.914062 -1.359375 9.125 -1.640625 C 9.34375 -1.921875 9.5625 -2.296875 9.78125 -2.765625 L 9.96875 -2.765625 L 8.90625 0 L 1.0625 0 L 1.0625 -0.1875 Z M 1.328125 -0.1875 "/></g></g></g><g fill="#eeba2b" fill-opacity="1"><g transform="translate(96.571869, 18.344464)"><g/></g></g><g fill="#eeba2b" fill-opacity="1"><g transform="translate(101.403784, 18.344464)"><g><path d="M 1.40625 -0.1875 C 1.738281 -0.1875 2.023438 -0.304688 2.265625 -0.546875 C 2.503906 -0.785156 2.628906 -1.070312 2.640625 -1.40625 L 2.640625 -12.125 C 2.628906 -12.457031 2.503906 -12.742188 2.265625 -12.984375 C 2.023438 -13.222656 1.738281 -13.34375 1.40625 -13.34375 L 1.15625 -13.34375 L 1.15625 -13.53125 L 5.390625 -13.53125 L 5.390625 -13.34375 L 5.140625 -13.34375 C 4.679688 -13.34375 4.328125 -13.140625 4.078125 -12.734375 C 3.960938 -12.546875 3.90625 -12.34375 3.90625 -12.125 L 3.90625 -0.59375 L 6.671875 -0.59375 C 7.617188 -0.59375 8.34375 -0.804688 8.84375 -1.234375 C 9.351562 -1.660156 9.773438 -2.289062 10.109375 -3.125 L 10.296875 -3.125 L 9.1875 0 L 1.15625 0 L 1.15625 -0.1875 Z M 1.40625 -0.1875 "/></g></g></g><g fill="#eeba2b" fill-opacity="1"><g transform="translate(112.265935, 18.344464)"><g><path d="M 1.328125 -0.1875 C 1.679688 -0.1875 1.984375 -0.289062 2.234375 -0.5 C 2.492188 -0.707031 2.625 -0.953125 2.625 -1.234375 L 2.625 -10.359375 C 2.625 -10.640625 2.492188 -10.882812 2.234375 -11.09375 C 1.984375 -11.300781 1.675781 -11.40625 1.3125 -11.40625 L 1.0625 -11.40625 L 1.0625 -11.59375 L 5.4375 -11.59375 L 5.4375 -11.40625 L 5.1875 -11.40625 C 4.832031 -11.40625 4.53125 -11.304688 4.28125 -11.109375 C 4.03125 -10.921875 3.890625 -10.6875 3.859375 -10.40625 L 3.859375 -1.21875 C 3.878906 -0.9375 4.015625 -0.691406 4.265625 -0.484375 C 4.523438 -0.285156 4.832031 -0.1875 5.1875 -0.1875 L 5.4375 -0.1875 L 5.453125 0 L 1.0625 0 L 1.0625 -0.1875 Z M 1.328125 -0.1875 "/></g></g></g><g fill="#eeba2b" fill-opacity="1"><g transform="translate(118.76004, 18.344464)"><g><path d="M 12.921875 -11.40625 L 12.765625 -11.40625 C 12.484375 -11.40625 12.207031 -11.3125 11.9375 -11.125 C 11.664062 -10.9375 11.4375 -10.65625 11.25 -10.28125 C 8.4375 -4.25 6.972656 -1.09375 6.859375 -0.8125 C 6.640625 -0.269531 6.523438 0.0859375 6.515625 0.265625 L 6.328125 0.265625 L 1.5625 -10.265625 C 1.1875 -11.023438 0.691406 -11.40625 0.078125 -11.40625 L -0.078125 -11.40625 L -0.078125 -11.59375 L 3.875 -11.59375 L 3.875 -11.40625 L 3.734375 -11.40625 C 3.484375 -11.40625 3.296875 -11.316406 3.171875 -11.140625 C 3.046875 -10.960938 2.984375 -10.800781 2.984375 -10.65625 C 2.984375 -10.519531 3.003906 -10.375 3.046875 -10.21875 L 6.515625 -1.796875 L 10.0625 -10.1875 C 10.125 -10.351562 10.15625 -10.507812 10.15625 -10.65625 C 10.15625 -10.800781 10.09375 -10.960938 9.96875 -11.140625 C 9.84375 -11.316406 9.648438 -11.40625 9.390625 -11.40625 L 9.25 -11.40625 L 9.25 -11.59375 L 12.921875 -11.59375 Z M 12.921875 -11.40625 "/></g></g></g><g fill="#eeba2b" fill-opacity="1"><g transform="translate(131.574287, 18.344464)"><g><path d="M 1.328125 -0.1875 C 1.679688 -0.1875 1.984375 -0.289062 2.234375 -0.5 C 2.492188 -0.707031 2.625 -0.953125 2.625 -1.234375 L 2.625 -10.359375 C 2.625 -10.640625 2.492188 -10.882812 2.234375 -11.09375 C 1.984375 -11.300781 1.675781 -11.40625 1.3125 -11.40625 L 1.0625 -11.40625 L 1.0625 -11.59375 L 5.4375 -11.59375 L 5.4375 -11.40625 L 5.1875 -11.40625 C 4.832031 -11.40625 4.53125 -11.304688 4.28125 -11.109375 C 4.03125 -10.921875 3.890625 -10.6875 3.859375 -10.40625 L 3.859375 -1.21875 C 3.878906 -0.9375 4.015625 -0.691406 4.265625 -0.484375 C 4.523438 -0.285156 4.832031 -0.1875 5.1875 -0.1875 L 5.4375 -0.1875 L 5.453125 0 L 1.0625 0 L 1.0625 -0.1875 Z M 1.328125 -0.1875 "/></g></g></g><g fill="#eeba2b" fill-opacity="1"><g transform="translate(138.068392, 18.344464)"><g><path d="M 14.046875 -11.40625 C 13.765625 -11.40625 13.519531 -11.3125 13.3125 -11.125 C 13.113281 -10.9375 13.003906 -10.707031 12.984375 -10.4375 L 12.984375 -2.203125 C 12.984375 -1.453125 13.03125 -0.742188 13.125 -0.078125 L 13.15625 0.265625 L 12.984375 0.265625 L 2.9375 -9.265625 L 2.9375 -1.203125 C 2.9375 -0.910156 3.039062 -0.664062 3.25 -0.46875 C 3.457031 -0.28125 3.707031 -0.1875 4 -0.1875 L 4.328125 -0.1875 L 4.328125 0 L 0.671875 0 L 0.671875 -0.1875 L 1 -0.1875 C 1.300781 -0.1875 1.550781 -0.28125 1.75 -0.46875 C 1.957031 -0.664062 2.0625 -0.910156 2.0625 -1.203125 L 2.0625 -9.46875 C 2.0625 -10.257812 2.019531 -10.960938 1.9375 -11.578125 L 1.890625 -11.890625 L 2.109375 -11.875 L 12.140625 -2.421875 L 12.140625 -10.4375 C 12.109375 -10.707031 11.988281 -10.9375 11.78125 -11.125 C 11.582031 -11.3125 11.34375 -11.40625 11.0625 -11.40625 L 10.734375 -11.40625 L 10.734375 -11.59375 L 14.375 -11.59375 L 14.375 -11.40625 Z M 14.046875 -11.40625 "/></g></g></g><g fill="#eeba2b" fill-opacity="1"><g transform="translate(153.124654, 18.344464)"><g><path d="M 7.3125 0.265625 C 5.382812 0.253906 3.84375 -0.289062 2.6875 -1.375 C 1.539062 -2.46875 0.96875 -3.941406 0.96875 -5.796875 C 0.96875 -7.660156 1.539062 -9.140625 2.6875 -10.234375 C 3.84375 -11.328125 5.332031 -11.875 7.15625 -11.875 C 8.976562 -11.875 10.53125 -11.484375 11.8125 -10.703125 L 12.234375 -7.96875 L 12.0625 -7.96875 C 11.789062 -9.09375 11.265625 -9.925781 10.484375 -10.46875 C 9.703125 -11.007812 8.597656 -11.28125 7.171875 -11.28125 C 5.753906 -11.28125 4.597656 -10.785156 3.703125 -9.796875 C 2.804688 -8.816406 2.359375 -7.484375 2.359375 -5.796875 C 2.359375 -4.109375 2.804688 -2.769531 3.703125 -1.78125 C 4.609375 -0.800781 5.859375 -0.3125 7.453125 -0.3125 C 9.046875 -0.3125 10.414062 -0.867188 11.5625 -1.984375 L 11.578125 -4.5625 C 11.585938 -4.789062 11.507812 -4.972656 11.34375 -5.109375 C 11.1875 -5.242188 10.96875 -5.3125 10.6875 -5.3125 L 10.421875 -5.3125 L 10.421875 -5.515625 L 13.953125 -5.515625 L 13.953125 -5.3125 L 13.6875 -5.3125 C 13.101562 -5.3125 12.8125 -5.054688 12.8125 -4.546875 L 12.8125 -2.21875 C 12.269531 -1.550781 11.523438 -0.96875 10.578125 -0.46875 C 9.628906 0.0195312 8.539062 0.265625 7.3125 0.265625 Z M 7.3125 0.265625 "/></g></g></g><g fill="#eeba2b" fill-opacity="1"><g transform="translate(167.465791, 18.344464)"><g/></g></g><g fill="#eeba2b" fill-opacity="1"><g transform="translate(172.297705, 18.344464)"><g><path d="M 12.125 -7.25 C 11.851562 -7.25 11.660156 -7.179688 11.546875 -7.046875 C 11.441406 -6.910156 11.390625 -6.78125 11.390625 -6.65625 C 11.390625 -6.53125 11.414062 -6.328125 11.46875 -6.046875 C 11.53125 -5.765625 11.5625 -5.390625 11.5625 -4.921875 C 11.5625 -3.910156 11.320312 -2.984375 10.84375 -2.140625 C 11.300781 -1.742188 11.664062 -1.4375 11.9375 -1.21875 C 12.207031 -1.007812 12.5625 -0.789062 13 -0.5625 C 13.445312 -0.34375 13.851562 -0.21875 14.21875 -0.1875 L 14.21875 0 C 14.207031 0 14.101562 0 13.90625 0 C 13.707031 0 13.566406 0 13.484375 0 C 13.398438 0 13.242188 -0.00390625 13.015625 -0.015625 C 12.785156 -0.0234375 12.597656 -0.046875 12.453125 -0.078125 C 12.316406 -0.117188 12.132812 -0.164062 11.90625 -0.21875 C 11.675781 -0.269531 11.46875 -0.335938 11.28125 -0.421875 C 10.820312 -0.628906 10.414062 -0.867188 10.0625 -1.140625 C 9.15625 -0.253906 7.96875 0.1875 6.5 0.1875 C 4.613281 0.1875 3.15625 -0.203125 2.125 -0.984375 C 1.09375 -1.773438 0.578125 -2.890625 0.578125 -4.328125 C 0.578125 -5.921875 1.359375 -7.113281 2.921875 -7.90625 C 2.429688 -8.6875 2.1875 -9.550781 2.1875 -10.5 C 2.1875 -11.445312 2.535156 -12.234375 3.234375 -12.859375 C 3.953125 -13.484375 4.894531 -13.796875 6.0625 -13.796875 C 6.726562 -13.796875 7.351562 -13.671875 7.9375 -13.421875 C 8.53125 -13.171875 9.003906 -12.835938 9.359375 -12.421875 L 9 -10.25 L 8.8125 -10.25 C 8.8125 -11.175781 8.5625 -11.898438 8.0625 -12.421875 C 7.5625 -12.953125 6.921875 -13.21875 6.140625 -13.21875 C 5.359375 -13.21875 4.722656 -12.957031 4.234375 -12.4375 C 3.753906 -11.925781 3.515625 -11.285156 3.515625 -10.515625 C 3.515625 -9.742188 3.753906 -9.015625 4.234375 -8.328125 C 4.710938 -7.648438 5.644531 -6.691406 7.03125 -5.453125 C 8.425781 -4.210938 9.445312 -3.320312 10.09375 -2.78125 C 10.363281 -3.375 10.5 -3.984375 10.5 -4.609375 C 10.5 -5.242188 10.359375 -5.84375 10.078125 -6.40625 C 9.796875 -6.96875 9.390625 -7.25 8.859375 -7.25 L 8.5625 -7.25 L 8.5625 -7.4375 L 12.40625 -7.4375 L 12.40625 -7.25 Z M 9.40625 -1.703125 C 6.113281 -4.421875 4.054688 -6.332031 3.234375 -7.4375 C 2.398438 -6.664062 1.984375 -5.65625 1.984375 -4.40625 C 1.984375 -3.164062 2.378906 -2.1875 3.171875 -1.46875 C 3.972656 -0.75 5.082031 -0.390625 6.5 -0.390625 C 7.675781 -0.390625 8.644531 -0.828125 9.40625 -1.703125 Z M 9.40625 -1.703125 "/></g></g></g><g fill="#eeba2b" fill-opacity="1"><g transform="translate(184.783386, 18.344464)"><g/></g></g><g fill="#eeba2b" fill-opacity="1"><g transform="translate(189.615301, 18.344464)"><g><path d="M 1.40625 -0.1875 C 1.738281 -0.1875 2.023438 -0.304688 2.265625 -0.546875 C 2.503906 -0.785156 2.628906 -1.070312 2.640625 -1.40625 L 2.640625 -12.140625 C 2.628906 -12.472656 2.503906 -12.753906 2.265625 -12.984375 C 2.023438 -13.222656 1.738281 -13.34375 1.40625 -13.34375 L 1.15625 -13.34375 L 1.15625 -13.53125 L 5.390625 -13.53125 L 5.390625 -13.34375 L 5.140625 -13.34375 C 4.804688 -13.34375 4.519531 -13.222656 4.28125 -12.984375 C 4.039062 -12.753906 3.914062 -12.472656 3.90625 -12.140625 L 3.90625 -1.40625 C 3.90625 -1.070312 4.023438 -0.785156 4.265625 -0.546875 C 4.515625 -0.304688 4.804688 -0.1875 5.140625 -0.1875 L 5.390625 -0.1875 L 5.390625 0 L 1.15625 0 L 1.15625 -0.1875 Z M 1.40625 -0.1875 "/></g></g></g><g fill="#eeba2b" fill-opacity="1"><g transform="translate(196.148053, 18.344464)"><g><path d="M 14.046875 -11.40625 C 13.765625 -11.40625 13.519531 -11.3125 13.3125 -11.125 C 13.113281 -10.9375 13.003906 -10.707031 12.984375 -10.4375 L 12.984375 -2.203125 C 12.984375 -1.453125 13.03125 -0.742188 13.125 -0.078125 L 13.15625 0.265625 L 12.984375 0.265625 L 2.9375 -9.265625 L 2.9375 -1.203125 C 2.9375 -0.910156 3.039062 -0.664062 3.25 -0.46875 C 3.457031 -0.28125 3.707031 -0.1875 4 -0.1875 L 4.328125 -0.1875 L 4.328125 0 L 0.671875 0 L 0.671875 -0.1875 L 1 -0.1875 C 1.300781 -0.1875 1.550781 -0.28125 1.75 -0.46875 C 1.957031 -0.664062 2.0625 -0.910156 2.0625 -1.203125 L 2.0625 -9.46875 C 2.0625 -10.257812 2.019531 -10.960938 1.9375 -11.578125 L 1.890625 -11.890625 L 2.109375 -11.875 L 12.140625 -2.421875 L 12.140625 -10.4375 C 12.109375 -10.707031 11.988281 -10.9375 11.78125 -11.125 C 11.582031 -11.3125 11.34375 -11.40625 11.0625 -11.40625 L 10.734375 -11.40625 L 10.734375 -11.59375 L 14.375 -11.59375 L 14.375 -11.40625 Z M 14.046875 -11.40625 "/></g></g></g><g fill="#eeba2b" fill-opacity="1"><g transform="translate(211.204315, 18.344464)"><g><path d="M 1.125 -0.640625 C 1.082031 -0.796875 1.0625 -1.109375 1.0625 -1.578125 C 1.0625 -2.054688 1.144531 -2.539062 1.3125 -3.03125 L 1.546875 -3.03125 C 1.535156 -2.914062 1.53125 -2.800781 1.53125 -2.6875 C 1.53125 -1.988281 1.757812 -1.414062 2.21875 -0.96875 C 2.675781 -0.53125 3.304688 -0.3125 4.109375 -0.3125 C 4.960938 -0.3125 5.628906 -0.503906 6.109375 -0.890625 C 6.585938 -1.285156 6.828125 -1.796875 6.828125 -2.421875 C 6.828125 -3.046875 6.59375 -3.566406 6.125 -3.984375 L 2.265625 -6.953125 C 1.640625 -7.484375 1.328125 -8.191406 1.328125 -9.078125 C 1.328125 -9.585938 1.46875 -10.050781 1.75 -10.46875 C 2.03125 -10.894531 2.414062 -11.234375 2.90625 -11.484375 C 3.40625 -11.742188 3.988281 -11.875 4.65625 -11.875 C 5.320312 -11.875 5.914062 -11.8125 6.4375 -11.6875 L 7.078125 -11.6875 L 7.109375 -9.59375 L 6.90625 -9.59375 C 6.90625 -10.132812 6.71875 -10.550781 6.34375 -10.84375 C 5.96875 -11.132812 5.429688 -11.28125 4.734375 -11.28125 C 4.035156 -11.28125 3.460938 -11.101562 3.015625 -10.75 C 2.566406 -10.394531 2.34375 -9.9375 2.34375 -9.375 C 2.34375 -8.820312 2.59375 -8.335938 3.09375 -7.921875 L 7 -4.90625 C 7.59375 -4.414062 7.890625 -3.734375 7.890625 -2.859375 C 7.890625 -1.984375 7.554688 -1.242188 6.890625 -0.640625 C 6.222656 -0.0351562 5.414062 0.265625 4.46875 0.265625 C 3.832031 0.265625 3.195312 0.1875 2.5625 0.03125 C 1.9375 -0.113281 1.457031 -0.335938 1.125 -0.640625 Z M 1.125 -0.640625 "/></g></g></g><g fill="#eeba2b" fill-opacity="1"><g transform="translate(220.133688, 18.344464)"><g><path d="M 4.421875 -5.484375 C 4.722656 -5.410156 4.992188 -5.375 5.234375 -5.375 C 5.484375 -5.375 5.679688 -5.378906 5.828125 -5.390625 C 5.984375 -5.398438 6.203125 -5.441406 6.484375 -5.515625 C 6.773438 -5.585938 7.035156 -5.703125 7.265625 -5.859375 C 7.804688 -6.191406 8.207031 -6.71875 8.46875 -7.4375 C 8.550781 -7.695312 8.59375 -8.046875 8.59375 -8.484375 C 8.59375 -9.265625 8.320312 -9.878906 7.78125 -10.328125 C 7.25 -10.785156 6.503906 -11.015625 5.546875 -11.015625 L 3.671875 -11.015625 L 3.671875 -1.234375 C 3.679688 -0.828125 3.867188 -0.523438 4.234375 -0.328125 C 4.398438 -0.234375 4.585938 -0.1875 4.796875 -0.1875 L 5.0625 -0.1875 L 5.0625 0 L 1.0625 0 L 1.0625 -0.1875 L 1.328125 -0.1875 C 1.640625 -0.1875 1.898438 -0.285156 2.109375 -0.484375 C 2.328125 -0.691406 2.441406 -0.9375 2.453125 -1.21875 L 2.453125 -10.375 C 2.441406 -10.675781 2.328125 -10.921875 2.109375 -11.109375 C 1.898438 -11.304688 1.640625 -11.40625 1.328125 -11.40625 L 1.0625 -11.40625 L 1.0625 -11.59375 L 5.578125 -11.59375 C 6.929688 -11.59375 8.003906 -11.296875 8.796875 -10.703125 C 9.597656 -10.109375 10 -9.3125 10 -8.3125 C 10 -7.59375 9.828125 -6.960938 9.484375 -6.421875 C 8.828125 -5.359375 7.8125 -4.828125 6.4375 -4.828125 C 5.75 -4.828125 5.078125 -4.984375 4.421875 -5.296875 Z M 4.421875 -5.484375 "/></g></g></g><g fill="#eeba2b" fill-opacity="1"><g transform="translate(230.821904, 18.344464)"><g><path d="M 1.328125 -0.1875 C 1.679688 -0.1875 1.984375 -0.289062 2.234375 -0.5 C 2.492188 -0.707031 2.625 -0.953125 2.625 -1.234375 L 2.625 -10.359375 C 2.625 -10.640625 2.492188 -10.882812 2.234375 -11.09375 C 1.984375 -11.300781 1.675781 -11.40625 1.3125 -11.40625 L 1.0625 -11.40625 L 1.0625 -11.59375 L 5.4375 -11.59375 L 5.4375 -11.40625 L 5.1875 -11.40625 C 4.832031 -11.40625 4.53125 -11.304688 4.28125 -11.109375 C 4.03125 -10.921875 3.890625 -10.6875 3.859375 -10.40625 L 3.859375 -1.21875 C 3.878906 -0.9375 4.015625 -0.691406 4.265625 -0.484375 C 4.523438 -0.285156 4.832031 -0.1875 5.1875 -0.1875 L 5.4375 -0.1875 L 5.453125 0 L 1.0625 0 L 1.0625 -0.1875 Z M 1.328125 -0.1875 "/></g></g></g><g fill="#eeba2b" fill-opacity="1"><g transform="translate(237.316021, 18.344464)"><g><path d="M 4.671875 -11 L 3.65625 -11 L 3.65625 -1.234375 C 3.664062 -0.835938 3.84375 -0.535156 4.1875 -0.328125 C 4.363281 -0.234375 4.550781 -0.1875 4.75 -0.1875 L 5 -0.1875 L 5.03125 0 L 1.0625 0 L 1.0625 -0.1875 L 1.328125 -0.1875 C 1.628906 -0.1875 1.882812 -0.285156 2.09375 -0.484375 C 2.3125 -0.691406 2.421875 -0.9375 2.421875 -1.21875 L 2.421875 -10.40625 C 2.421875 -10.6875 2.3125 -10.921875 2.09375 -11.109375 C 1.882812 -11.304688 1.628906 -11.40625 1.328125 -11.40625 L 1.0625 -11.40625 L 1.0625 -11.59375 L 5.921875 -11.59375 C 7.128906 -11.59375 8.082031 -11.316406 8.78125 -10.765625 C 9.488281 -10.210938 9.84375 -9.484375 9.84375 -8.578125 C 9.84375 -7.679688 9.554688 -6.925781 8.984375 -6.3125 C 8.421875 -5.707031 7.703125 -5.363281 6.828125 -5.28125 C 7.234375 -5.09375 7.726562 -4.585938 8.3125 -3.765625 C 8.300781 -3.765625 8.519531 -3.476562 8.96875 -2.90625 C 9.425781 -2.34375 9.796875 -1.90625 10.078125 -1.59375 C 10.359375 -1.28125 10.585938 -1.039062 10.765625 -0.875 C 11.242188 -0.414062 11.789062 -0.1875 12.40625 -0.1875 L 12.40625 0 L 11.8125 0 C 10.789062 0 9.988281 -0.195312 9.40625 -0.59375 C 8.96875 -0.894531 8.570312 -1.265625 8.21875 -1.703125 C 8.132812 -1.804688 7.804688 -2.257812 7.234375 -3.0625 C 6.660156 -3.863281 6.351562 -4.289062 6.3125 -4.34375 C 5.625 -5.207031 4.976562 -5.640625 4.375 -5.640625 L 4.375 -5.84375 C 5.875 -5.84375 6.78125 -5.914062 7.09375 -6.0625 C 7.519531 -6.28125 7.8125 -6.515625 7.96875 -6.765625 C 8.289062 -7.273438 8.453125 -7.84375 8.453125 -8.46875 C 8.453125 -9.25 8.21875 -9.851562 7.75 -10.28125 C 7.289062 -10.707031 6.664062 -10.941406 5.875 -10.984375 C 5.53125 -10.992188 5.128906 -11 4.671875 -11 Z M 4.671875 -11 "/></g></g></g><g fill="#eeba2b" fill-opacity="1"><g transform="translate(249.434461, 18.344464)"><g><path d="M 1.328125 -0.1875 C 1.679688 -0.1875 1.984375 -0.289062 2.234375 -0.5 C 2.492188 -0.707031 2.625 -0.953125 2.625 -1.234375 L 2.625 -10.359375 C 2.625 -10.640625 2.492188 -10.882812 2.234375 -11.09375 C 1.984375 -11.300781 1.675781 -11.40625 1.3125 -11.40625 L 1.0625 -11.40625 L 1.0625 -11.59375 L 5.4375 -11.59375 L 5.4375 -11.40625 L 5.1875 -11.40625 C 4.832031 -11.40625 4.53125 -11.304688 4.28125 -11.109375 C 4.03125 -10.921875 3.890625 -10.6875 3.859375 -10.40625 L 3.859375 -1.21875 C 3.878906 -0.9375 4.015625 -0.691406 4.265625 -0.484375 C 4.523438 -0.285156 4.832031 -0.1875 5.1875 -0.1875 L 5.4375 -0.1875 L 5.453125 0 L 1.0625 0 L 1.0625 -0.1875 Z M 1.328125 -0.1875 "/></g></g></g><g fill="#eeba2b" fill-opacity="1"><g transform="translate(255.928553, 18.344464)"><g><path d="M 14.046875 -11.40625 C 13.765625 -11.40625 13.519531 -11.3125 13.3125 -11.125 C 13.113281 -10.9375 13.003906 -10.707031 12.984375 -10.4375 L 12.984375 -2.203125 C 12.984375 -1.453125 13.03125 -0.742188 13.125 -0.078125 L 13.15625 0.265625 L 12.984375 0.265625 L 2.9375 -9.265625 L 2.9375 -1.203125 C 2.9375 -0.910156 3.039062 -0.664062 3.25 -0.46875 C 3.457031 -0.28125 3.707031 -0.1875 4 -0.1875 L 4.328125 -0.1875 L 4.328125 0 L 0.671875 0 L 0.671875 -0.1875 L 1 -0.1875 C 1.300781 -0.1875 1.550781 -0.28125 1.75 -0.46875 C 1.957031 -0.664062 2.0625 -0.910156 2.0625 -1.203125 L 2.0625 -9.46875 C 2.0625 -10.257812 2.019531 -10.960938 1.9375 -11.578125 L 1.890625 -11.890625 L 2.109375 -11.875 L 12.140625 -2.421875 L 12.140625 -10.4375 C 12.109375 -10.707031 11.988281 -10.9375 11.78125 -11.125 C 11.582031 -11.3125 11.34375 -11.40625 11.0625 -11.40625 L 10.734375 -11.40625 L 10.734375 -11.59375 L 14.375 -11.59375 L 14.375 -11.40625 Z M 14.046875 -11.40625 "/></g></g></g><g fill="#eeba2b" fill-opacity="1"><g transform="translate(270.984842, 18.344464)"><g><path d="M 7.3125 0.265625 C 5.382812 0.253906 3.84375 -0.289062 2.6875 -1.375 C 1.539062 -2.46875 0.96875 -3.941406 0.96875 -5.796875 C 0.96875 -7.660156 1.539062 -9.140625 2.6875 -10.234375 C 3.84375 -11.328125 5.332031 -11.875 7.15625 -11.875 C 8.976562 -11.875 10.53125 -11.484375 11.8125 -10.703125 L 12.234375 -7.96875 L 12.0625 -7.96875 C 11.789062 -9.09375 11.265625 -9.925781 10.484375 -10.46875 C 9.703125 -11.007812 8.597656 -11.28125 7.171875 -11.28125 C 5.753906 -11.28125 4.597656 -10.785156 3.703125 -9.796875 C 2.804688 -8.816406 2.359375 -7.484375 2.359375 -5.796875 C 2.359375 -4.109375 2.804688 -2.769531 3.703125 -1.78125 C 4.609375 -0.800781 5.859375 -0.3125 7.453125 -0.3125 C 9.046875 -0.3125 10.414062 -0.867188 11.5625 -1.984375 L 11.578125 -4.5625 C 11.585938 -4.789062 11.507812 -4.972656 11.34375 -5.109375 C 11.1875 -5.242188 10.96875 -5.3125 10.6875 -5.3125 L 10.421875 -5.3125 L 10.421875 -5.515625 L 13.953125 -5.515625 L 13.953125 -5.3125 L 13.6875 -5.3125 C 13.101562 -5.3125 12.8125 -5.054688 12.8125 -4.546875 L 12.8125 -2.21875 C 12.269531 -1.550781 11.523438 -0.96875 10.578125 -0.46875 C 9.628906 0.0195312 8.539062 0.265625 7.3125 0.265625 Z M 7.3125 0.265625 "/></g></g></g><g fill="#eeba2b" fill-opacity="1"><g transform="translate(285.325953, 18.344464)"><g/></g></g><g fill="#eeba2b" fill-opacity="1"><g transform="translate(290.15788, 18.344464)"><g><path d="M 11.390625 -11.8125 C 11.390625 -12.113281 11.28125 -12.378906 11.0625 -12.609375 C 10.84375 -12.835938 10.582031 -12.957031 10.28125 -12.96875 L 6.609375 -12.96875 L 6.609375 -1.390625 C 6.617188 -1.054688 6.742188 -0.769531 6.984375 -0.53125 C 7.222656 -0.300781 7.507812 -0.1875 7.84375 -0.1875 L 8.09375 -0.1875 L 8.09375 0 L 3.859375 0 L 3.859375 -0.1875 L 4.109375 -0.1875 C 4.453125 -0.1875 4.738281 -0.300781 4.96875 -0.53125 C 5.207031 -0.769531 5.335938 -1.050781 5.359375 -1.375 L 5.359375 -12.96875 L 1.6875 -12.96875 C 1.375 -12.957031 1.109375 -12.835938 0.890625 -12.609375 C 0.679688 -12.378906 0.578125 -12.113281 0.578125 -11.8125 L 0.578125 -11.484375 L 0.390625 -11.46875 L 0.390625 -13.890625 C 0.578125 -13.816406 0.910156 -13.738281 1.390625 -13.65625 C 1.867188 -13.582031 2.304688 -13.546875 2.703125 -13.546875 L 9.234375 -13.546875 C 9.867188 -13.546875 10.394531 -13.59375 10.8125 -13.6875 C 11.226562 -13.789062 11.484375 -13.859375 11.578125 -13.890625 L 11.578125 -11.46875 L 11.390625 -11.484375 Z M 11.390625 -11.8125 "/></g></g></g><g fill="#eeba2b" fill-opacity="1"><g transform="translate(302.102397, 18.344464)"><g><path d="M 4.671875 -11 L 3.65625 -11 L 3.65625 -1.234375 C 3.664062 -0.835938 3.84375 -0.535156 4.1875 -0.328125 C 4.363281 -0.234375 4.550781 -0.1875 4.75 -0.1875 L 5 -0.1875 L 5.03125 0 L 1.0625 0 L 1.0625 -0.1875 L 1.328125 -0.1875 C 1.628906 -0.1875 1.882812 -0.285156 2.09375 -0.484375 C 2.3125 -0.691406 2.421875 -0.9375 2.421875 -1.21875 L 2.421875 -10.40625 C 2.421875 -10.6875 2.3125 -10.921875 2.09375 -11.109375 C 1.882812 -11.304688 1.628906 -11.40625 1.328125 -11.40625 L 1.0625 -11.40625 L 1.0625 -11.59375 L 5.921875 -11.59375 C 7.128906 -11.59375 8.082031 -11.316406 8.78125 -10.765625 C 9.488281 -10.210938 9.84375 -9.484375 9.84375 -8.578125 C 9.84375 -7.679688 9.554688 -6.925781 8.984375 -6.3125 C 8.421875 -5.707031 7.703125 -5.363281 6.828125 -5.28125 C 7.234375 -5.09375 7.726562 -4.585938 8.3125 -3.765625 C 8.300781 -3.765625 8.519531 -3.476562 8.96875 -2.90625 C 9.425781 -2.34375 9.796875 -1.90625 10.078125 -1.59375 C 10.359375 -1.28125 10.585938 -1.039062 10.765625 -0.875 C 11.242188 -0.414062 11.789062 -0.1875 12.40625 -0.1875 L 12.40625 0 L 11.8125 0 C 10.789062 0 9.988281 -0.195312 9.40625 -0.59375 C 8.96875 -0.894531 8.570312 -1.265625 8.21875 -1.703125 C 8.132812 -1.804688 7.804688 -2.257812 7.234375 -3.0625 C 6.660156 -3.863281 6.351562 -4.289062 6.3125 -4.34375 C 5.625 -5.207031 4.976562 -5.640625 4.375 -5.640625 L 4.375 -5.84375 C 5.875 -5.84375 6.78125 -5.914062 7.09375 -6.0625 C 7.519531 -6.28125 7.8125 -6.515625 7.96875 -6.765625 C 8.289062 -7.273438 8.453125 -7.84375 8.453125 -8.46875 C 8.453125 -9.25 8.21875 -9.851562 7.75 -10.28125 C 7.289062 -10.707031 6.664062 -10.941406 5.875 -10.984375 C 5.53125 -10.992188 5.128906 -11 4.671875 -11 Z M 4.671875 -11 "/></g></g></g><g fill="#eeba2b" fill-opacity="1"><g transform="translate(314.220837, 18.344464)"><g><path d="M 12.859375 -11.40625 L 12.5625 -11.40625 C 12.21875 -11.40625 11.953125 -11.269531 11.765625 -11 C 11.691406 -10.882812 11.648438 -10.75 11.640625 -10.59375 L 11.640625 -4.078125 C 11.640625 -2.734375 11.207031 -1.671875 10.34375 -0.890625 C 9.488281 -0.117188 8.3125 0.265625 6.8125 0.265625 C 5.320312 0.265625 4.144531 -0.117188 3.28125 -0.890625 C 2.414062 -1.660156 1.984375 -2.71875 1.984375 -4.0625 L 1.984375 -10.578125 C 1.984375 -10.804688 1.894531 -11 1.71875 -11.15625 C 1.539062 -11.320312 1.320312 -11.40625 1.0625 -11.40625 L 0.765625 -11.40625 L 0.765625 -11.59375 L 4.453125 -11.59375 L 4.453125 -11.40625 L 4.15625 -11.40625 C 3.894531 -11.40625 3.675781 -11.320312 3.5 -11.15625 C 3.320312 -11 3.234375 -10.804688 3.234375 -10.578125 L 3.234375 -4.296875 C 3.234375 -3.046875 3.550781 -2.054688 4.1875 -1.328125 C 4.820312 -0.609375 5.722656 -0.25 6.890625 -0.25 C 8.054688 -0.25 8.988281 -0.585938 9.6875 -1.265625 C 10.394531 -1.953125 10.75 -2.890625 10.75 -4.078125 L 10.75 -10.578125 C 10.738281 -10.816406 10.644531 -11.015625 10.46875 -11.171875 C 10.289062 -11.328125 10.070312 -11.40625 9.8125 -11.40625 L 9.53125 -11.40625 L 9.53125 -11.59375 L 12.859375 -11.59375 Z M 12.859375 -11.40625 "/></g></g></g><g fill="#eeba2b" fill-opacity="1"><g transform="translate(327.750197, 18.344464)"><g><path d="M 1.125 -0.640625 C 1.082031 -0.796875 1.0625 -1.109375 1.0625 -1.578125 C 1.0625 -2.054688 1.144531 -2.539062 1.3125 -3.03125 L 1.546875 -3.03125 C 1.535156 -2.914062 1.53125 -2.800781 1.53125 -2.6875 C 1.53125 -1.988281 1.757812 -1.414062 2.21875 -0.96875 C 2.675781 -0.53125 3.304688 -0.3125 4.109375 -0.3125 C 4.960938 -0.3125 5.628906 -0.503906 6.109375 -0.890625 C 6.585938 -1.285156 6.828125 -1.796875 6.828125 -2.421875 C 6.828125 -3.046875 6.59375 -3.566406 6.125 -3.984375 L 2.265625 -6.953125 C 1.640625 -7.484375 1.328125 -8.191406 1.328125 -9.078125 C 1.328125 -9.585938 1.46875 -10.050781 1.75 -10.46875 C 2.03125 -10.894531 2.414062 -11.234375 2.90625 -11.484375 C 3.40625 -11.742188 3.988281 -11.875 4.65625 -11.875 C 5.320312 -11.875 5.914062 -11.8125 6.4375 -11.6875 L 7.078125 -11.6875 L 7.109375 -9.59375 L 6.90625 -9.59375 C 6.90625 -10.132812 6.71875 -10.550781 6.34375 -10.84375 C 5.96875 -11.132812 5.429688 -11.28125 4.734375 -11.28125 C 4.035156 -11.28125 3.460938 -11.101562 3.015625 -10.75 C 2.566406 -10.394531 2.34375 -9.9375 2.34375 -9.375 C 2.34375 -8.820312 2.59375 -8.335938 3.09375 -7.921875 L 7 -4.90625 C 7.59375 -4.414062 7.890625 -3.734375 7.890625 -2.859375 C 7.890625 -1.984375 7.554688 -1.242188 6.890625 -0.640625 C 6.222656 -0.0351562 5.414062 0.265625 4.46875 0.265625 C 3.832031 0.265625 3.195312 0.1875 2.5625 0.03125 C 1.9375 -0.113281 1.457031 -0.335938 1.125 -0.640625 Z M 1.125 -0.640625 "/></g></g></g><g fill="#eeba2b" fill-opacity="1"><g transform="translate(336.679596, 18.344464)"><g><path d="M 6.21875 -11.03125 L 6.21875 -1.21875 C 6.238281 -0.820312 6.429688 -0.523438 6.796875 -0.328125 C 6.972656 -0.234375 7.160156 -0.1875 7.359375 -0.1875 L 7.578125 -0.1875 L 7.578125 0 L 3.59375 0 L 3.59375 -0.1875 L 3.828125 -0.1875 C 4.140625 -0.1875 4.40625 -0.289062 4.625 -0.5 C 4.84375 -0.707031 4.957031 -0.953125 4.96875 -1.234375 L 4.96875 -11.03125 L 1.46875 -11.03125 C 1.175781 -11.03125 0.941406 -10.929688 0.765625 -10.734375 C 0.585938 -10.546875 0.5 -10.316406 0.5 -10.046875 L 0.5 -9.734375 L 0.296875 -9.734375 L 0.296875 -11.921875 C 0.546875 -11.816406 0.90625 -11.738281 1.375 -11.6875 C 1.851562 -11.632812 2.207031 -11.609375 2.4375 -11.609375 L 8.734375 -11.609375 C 9.660156 -11.609375 10.382812 -11.710938 10.90625 -11.921875 L 10.90625 -9.734375 L 10.6875 -9.734375 L 10.6875 -10.046875 C 10.6875 -10.316406 10.59375 -10.546875 10.40625 -10.734375 C 10.226562 -10.929688 10 -11.03125 9.71875 -11.03125 Z M 6.21875 -11.03125 "/></g></g></g></g></g></svg>